# ProBuilder 4.4.0
# https://unity3d.com/unity/features/worldbuilding/probuilder
# 11/11/2021 3:33:30 PM

mtllib ./CarLol.mtl
o CarLol

g CarLol
v -3.36688 -3.010392E-07 2.503022
v -3.366881 -3.010392E-07 -4.49698
v -3.36688 6.999999 2.503022
v -3.366881 6.999999 -4.49698
v -0.9216582 0.05660575 -10.25796
v 1.187897 0.05660575 -10.25796
v -0.9216582 2.166167 -10.25796
v 1.187897 2.166167 -10.25796
v 3.633121 -3.010392E-07 -4.496981
v 3.633122 -3.010392E-07 2.503021
v 3.633121 6.999999 -4.496981
v 3.633122 6.999999 2.503021
v 1.988665 -0.04698875 10.10212
v -1.722428 -0.04698875 10.10212
v 1.988665 3.664105 10.10212
v -1.722428 3.664105 10.10212
v -2.827389 0.03321504 -8.405472
v 3.093623 0.03321504 -8.405473
v -2.827389 5.954219 -8.405472
v 3.093623 5.954219 -8.405473

vt 2.503022 -3.010392E-07
vt -4.49698 -3.010392E-07
vt 2.503022 6.999999
vt -4.49698 6.999999
vt 0.9216582 0.05660575
vt -1.187897 0.05660575
vt 0.9216582 2.166167
vt -1.187897 2.166167
vt 4.49698 -3.010392E-07
vt -2.503022 -3.010392E-07
vt 4.49698 6.999999
vt -2.503022 6.999999
vt 1.988663 -0.04698875
vt -1.72243 -0.04698875
vt 1.988663 3.664105
vt -1.72243 3.664105
vt 3.36688 2.503022
vt 3.366881 -4.49698
vt -3.633122 2.503021
vt -3.633121 -4.496981
vt 3.633122 2.503021
vt 3.633121 -4.496981
vt -3.36688 2.503022
vt -3.366881 -4.49698
vt 3.633122 2.502974
vt -3.36688 2.502975
vt 1.988665 10.10221
vt -1.722428 10.10221
vt -1.677968 6.999999
vt -1.677968 -3.010392E-07
vt -9.452958 3.664105
vt -9.452958 -0.04698875
vt 1.734282 -3.010392E-07
vt 1.734282 6.999999
vt 9.509272 -0.04698875
vt 9.509272 3.664105
vt 3.366881 -0.5218116
vt -3.633121 -0.5218127
vt 1.722428 7.777249
vt -1.988665 7.777248
vt -2.827389 -8.405451
vt 3.093623 -8.405452
vt -3.994375 6.999999
vt -3.994375 -3.010392E-07
vt -7.939925 5.954219
vt -7.939925 0.03321504
vt 3.957965 -3.010392E-07
vt 3.957965 6.999999
vt 7.903516 0.03321504
vt 7.903516 5.954219
vt -3.633121 -2.53485
vt 3.366881 -2.534849
vt -3.093623 -6.580832
vt 2.827389 -6.580831
vt -0.9216582 -10.25786
vt 1.187897 -10.25786
vt -3.831392 5.954219
vt -3.831392 0.03321504
vt -6.489121 2.166167
vt -6.489121 0.05660575
vt 3.640498 0.03321504
vt 3.640498 5.954219
vt 6.298223 0.05660575
vt 6.298223 2.166167
vt -3.093624 1.656213
vt 2.827388 1.656213
vt -1.187898 -2.560546
vt 0.9216565 -2.560546

vn -1 0 1.021794E-07
vn 0 0 -1
vn 1 0 -1.021794E-07
vn 2.569794E-07 0 1
vn 0 1 0
vn 0 -1 0
vn -8.424088E-10 -0.9999809 -0.006183309
vn 0.9773768 0 0.2115059
vn -0.9773768 0 0.2115055
vn 5.476274E-08 0.9156571 0.4019603
vn -1.157753E-09 -0.9999639 -0.008497943
vn -0.9906078 0 -0.1367342
vn 0.9906076 0 -0.1367359
vn -3.521424E-08 0.9660183 -0.2584737
vn -2.033561E-09 -0.9999203 -0.01262563
vn -0.6970195 0 -0.7170522
vn 0.6970202 0 -0.7170514
vn -1.446909E-07 0.4393159 -0.8983327

usemtl ProBuilderDefault
f 3/3/1 4/4/1 2/2/1 1/1/1
f 7/7/2 8/8/2 6/6/2 5/5/2
f 11/11/3 12/12/3 10/10/3 9/9/3
f 15/15/4 16/16/4 14/14/4 13/13/4
f 12/19/5 11/20/5 4/18/5 3/17/5
f 1/23/6 2/24/6 9/22/6 10/21/6
f 13/27/7 14/28/7 1/26/7 10/25/7
f 15/31/8 13/32/8 10/30/8 12/29/8
f 14/35/9 16/36/9 3/34/9 1/33/9
f 16/39/10 15/40/10 12/38/10 3/37/10
f 17/41/11 18/42/11 9/22/11 2/24/11
f 19/45/12 17/46/12 2/44/12 4/43/12
f 18/49/13 20/50/13 11/48/13 9/47/13
f 20/53/14 19/54/14 4/52/14 11/51/14
f 5/55/15 6/56/15 18/42/15 17/41/15
f 7/59/16 5/60/16 17/58/16 19/57/16
f 6/63/17 8/64/17 20/62/17 18/61/17
f 8/67/18 7/68/18 19/66/18 20/65/18

