# ProBuilder 4.4.0
# https://unity3d.com/unity/features/worldbuilding/probuilder
# 11/11/2021 4:03:27 PM

mtllib ./Road1.mtl
o Road1

g Road1
v -1.192093E-07 0 -68.66306
v 0 0 5
v -5 0 -68.66306
v -5 0 5
v -1.192093E-07 0 38.93899
v -5 0 38.93899
v -10 0 -68.66306
v -10 0 5
v -10 0 38.93899
v -10 0.5 -83.10873
v -5 0.5 -83.10873
v -1.192093E-07 0.5 -83.10873
v -13.32233 0.9997005 -139.776
v -9.17609 0.9997005 -142.5704
v -5.029839 0.9997005 -145.3647
v -20.48035 1.499687 -169.9575
v -16.71394 1.499687 -173.2466
v -12.94754 1.499686 -176.5356
v -33.1438 1.999582 -185.681
v -31.15395 1.999582 -190.2685
v -29.16411 1.999581 -194.8559
v -59.39626 2.499424 -216.8607
v -56.53261 2.499467 -220.9635
v -53.66925 2.499485 -225.0656
v 6.861834 1.497088 96.43048
v 2.279733 1.494867 98.41495
v 37.98852 1.99693 119.3171
v 35.25638 1.994709 123.4967
v 11.4431 1.498186 94.4371
v 40.71504 1.998027 115.1304
v 82.06072 2.496889 127.3852
v 82.91925 2.494672 132.3054
v 81.19324 2.497979 122.4636
v 109.4764 2.996858 125.0861
v 112.8354 2.994641 128.7838
v 106.109 2.997945 121.3917
v 135.2084 3.49675 108.8643
v 139.7288 3.494534 110.9938
v 130.6814 3.497836 106.7409
v 150.9654 3.996666 77.663
v 155.4866 3.994449 79.79285
v 146.4376 3.997751 75.53907
v -0.5867783 0.5 47.6801
v -3.008785 0.5 48.29967
v -5.430791 0.5 48.91925
v -7.852802 0.5 49.53883
v -10.27481 0.5 50.1584
v 0.02223563 0.7494974 62.40136
v -2.333632 0.7493811 63.21173
v 2.378103 0.7496138 61.591
v 5.342984 0.9992275 75.50189
v 3.053256 0.9989948 76.50305
v 0.763528 0.9987621 77.50421
v -4.689574 0.7491453 64.02106
v -7.045516 0.7489095 64.8304
v -1.526346 0.9982905 78.50331
v -3.816219 0.9978189 79.5024

vt 1.192093E-07 -68.66306
vt 0 5
vt 5 -68.66306
vt 5 5
vt 1.192093E-07 38.93899
vt 5 38.93899
vt 10 -68.66306
vt 10 5
vt 10 38.93899
vt 10 -68.62196
vt 5 -68.62196
vt 10 -83.07629
vt 5 -83.07629
vt 1.192093E-07 -68.62196
vt 1.192093E-07 -83.07629
vt 10 -83.10992
vt 5 -83.10992
vt 13.32233 -139.7794
vt 9.17609 -142.5737
vt 5 -83.11
vt 1.192093E-07 -83.11
vt 5.029839 -145.368
vt 13.33133 -139.7742
vt 9.185288 -142.5688
vt 20.49384 -169.9588
vt 16.7276 -173.248
vt 9.185103 -142.5692
vt 5.039036 -145.3638
vt 16.72733 -173.2484
vt 12.9611 -176.5376
vt 20.50207 -169.9496
vt 16.73616 -173.2393
vt 33.17199 -185.6759
vt 31.1824 -190.2632
vt 16.73421 -173.2431
vt 12.96823 -176.5326
vt 31.18003 -190.2674
vt 29.1904 -194.8546
vt 33.16631 -185.6869
vt 31.17662 -190.2744
vt 59.42298 -216.867
vt 56.55955 -220.97
vt 31.17718 -190.2744
vt 29.18751 -194.8619
vt 56.56018 -220.97
vt 53.69706 -225.0721
vt -6.871068 96.4413
vt -2.289042 98.42594
vt -38.00027 119.3299
vt -35.26817 123.5094
vt -11.45282 94.4478
vt -6.871644 96.4414
vt -40.72744 115.1433
vt -38.00097 119.3298
vt -38.00694 119.3247
vt -35.27492 123.5044
vt -82.08195 127.393
vt -82.94041 132.313
vt -40.7347 115.1384
vt -38.00833 119.3251
vt -81.21595 122.4718
vt -82.08337 127.3932
vt -82.0923 127.3807
vt -82.95065 132.3009
vt -109.5126 125.0816
vt -112.8709 128.7795
vt -81.22688 122.4595
vt -82.09416 127.3811
vt -106.1477 121.3876
vt -109.5144 125.0821
vt -109.5047 125.0583
vt -112.8634 128.7562
vt -135.2409 108.8354
vt -139.7609 110.9654
vt -106.1392 121.363
vt -109.5062 125.0576
vt -130.716 106.7111
vt -135.2426 108.8351
vt -135.2262 108.8191
vt -139.7464 110.9487
vt -150.9858 77.61508
vt -155.5068 79.74512
vt -130.6997 106.6962
vt -135.2267 108.8198
vt -146.4586 75.49171
vt -150.9863 77.61582
vt 4.999891 38.885
vt 1.192067E-07 38.88324
vt 0.5834722 47.63878
vt 3.005426 48.25833
vt 5.42738 48.87788
vt 9.99983 38.89839
vt 4.999915 38.89701
vt 5.427788 48.88987
vt 7.849758 49.50942
vt 10.27173 50.12897
vt 5.428204 48.92123
vt 3.006227 48.30153
vt -0.02601139 62.40517
vt 2.329827 63.21561
vt 0.5842518 47.68184
vt -2.38185 61.59472
vt -5.34795 75.50759
vt -3.05825 76.5088
vt -0.7685502 77.51001
vt 10.27223 50.16072
vt 7.85025 49.54104
vt 4.685835 64.02516
vt 7.04175 64.83457
vt -0.7684274 77.51015
vt 1.521421 78.50929
vt 3.811269 79.50842
vt -0.773698 77.50647
vt -3.063309 76.50504
vt -5.35292 75.50362
vt -11.45782 94.44386
vt -6.876779 96.43776
vt 3.805706 79.50525
vt 1.51595 78.50589
vt -0.7738068 77.50652
vt -2.295057 98.42278

vn 0 1 0
vn 0 0.9994016 0.03459171
vn 0 0.9999611 0.008817813
vn 0.002703788 0.9999572 0.008420691
vn 0.005407577 0.9999532 0.008023569
vn 0 0.9999647 0.00840345
vn 0.005129946 0.9999579 0.007611742
vn 0.009624755 0.9998517 0.01428087
vn 0.01067073 0.9998466 0.01384904
vn 0.01171671 0.9998414 0.0134172
vn 0.009422638 0.9998579 0.01398118
vn 0.01044274 0.999853 0.01355361
vn 0.01146284 0.9998481 0.01312605
vn 0.01629465 0.9996931 0.01865956
vn 0.01959689 0.9996908 0.01429618
vn 0.02289912 0.9996884 0.009932798
vn 0.01472863 0.9997493 0.01686577
vn 0.01770591 0.9997476 0.01291857
vn 0.02068318 0.9997458 0.008971357
vn 0.01256492 0.9999062 0.005450202
vn 0.0116189 0.9999107 0.006455018
vn 0.01067287 0.9999152 0.007459834
vn 0.01291816 0.9999009 0.005603191
vn 0.01193947 0.9999058 0.006629247
vn 0.01096077 0.9999107 0.007655302
vn -0.00625689 0.9998916 -0.01332794
vn -0.00832502 0.999909 -0.009795198
vn -0.01039315 0.9999264 -0.00626246
vn -0.006653238 0.9998692 -0.01474017
vn -0.00882069 0.9998925 -0.01081697
vn -0.01098814 0.9999158 -0.006893765
vn -0.01057115 0.9999332 -0.001895543
vn -0.01092448 0.9999375 0.002356767
vn -0.01108923 0.9999143 -0.006959599
vn -0.01142631 0.9999212 -0.002332413
vn -0.01176338 0.9999282 0.002294774
vn -0.01793333 0.9998328 0.003579709
vn -0.01648214 0.9998091 0.008916467
vn -0.01503095 0.9997855 0.01425323
vn -0.01990167 0.999795 0.003729193
vn -0.0184079 0.9997642 0.009720232
vn -0.01691413 0.9997335 0.01571127
vn -0.01211091 0.9998594 0.01160076
vn -0.009777318 0.9998449 0.01422143
vn -0.007443729 0.9998305 0.0168421
vn -0.01306479 0.9998402 0.01220264
vn -0.01060683 0.9998235 0.01504332
vn -0.008148864 0.9998068 0.017884
vn -0.005700542 0.9998974 0.01314177
vn -0.008627549 0.9985464 -0.05276196
vn 0 0.998368 -0.05710764
vn -0.006470662 0.9985019 -0.05384838
vn -0.01294132 0.9986357 -0.05058911
vn -0.007639927 0.9988694 -0.04654447
vn 0 0.9987474 -0.05003611
vn -0.005729945 0.9988389 -0.04741738
vn -0.01145989 0.9989303 -0.04479866
vn -0.004960077 0.9998513 -0.01649689
vn -0.004289488 0.9998502 -0.0167681
vn -0.005630665 0.9998525 -0.01622568
vn -0.005032144 0.999847 -0.01673784
vn -0.004352234 0.9998458 -0.01701338
vn -0.005795772 0.9998437 -0.01670568
vn -0.00647947 0.9998438 -0.016428
vn -0.007163168 0.9998439 -0.01615032
vn -0.007060604 0.9998484 -0.01591574
vn -0.00416734 0.9998586 -0.01629084
vn -0.005510546 0.9998608 -0.0157497
vn -0.006355523 0.9998525 -0.0159401
vn -0.006940316 0.9998568 -0.01543494
vn -0.01021981 0.9996823 -0.02303931
vn -0.01032966 0.9996828 -0.02296837

usemtl ProBuilderDefault
f 44/90/53 6/87/50 45/91/53
f 44/90/53 43/89/52 6/87/50
f 43/89/52 5/88/51 6/87/50
f 46/95/57 9/92/54 47/96/57
f 46/95/57 45/94/56 9/92/54
f 45/94/56 6/93/55 9/92/54
f 29/116/71 51/115/71 52/114/71
f 29/116/71 52/114/71 53/113/71
f 25/117/71 29/116/71 53/113/71
f 25/117/72 53/120/71 56/119/71
f 25/117/72 56/119/71 57/118/72
f 26/121/72 25/117/72 57/118/72
f 4/4/1 2/2/1 1/1/1
f 1/1/1 3/3/1 4/4/1
f 6/6/1 5/5/1 2/2/1
f 2/2/1 4/4/1 6/6/1
f 8/8/1 4/4/1 3/3/1
f 3/3/1 7/7/1 8/8/1
f 9/9/1 6/6/1 4/4/1
f 4/4/1 8/8/1 9/9/1
f 10/12/2 7/10/2 3/11/2
f 3/11/2 11/13/2 10/12/2
f 11/13/2 3/11/2 1/14/2
f 1/14/2 12/15/2 11/13/2
f 13/18/4 10/16/3 11/17/4
f 11/17/4 14/19/5 13/18/4
f 14/19/4 11/20/6 12/21/4
f 12/21/4 15/22/7 14/19/4
f 16/25/9 13/23/8 14/24/9
f 14/24/9 17/26/10 16/25/9
f 17/29/12 14/27/11 15/28/12
f 15/28/12 18/30/13 17/29/12
f 19/33/15 16/31/14 17/32/15
f 17/32/15 20/34/16 19/33/15
f 20/37/18 17/35/17 18/36/18
f 18/36/18 21/38/19 20/37/18
f 22/41/21 19/39/20 20/40/21
f 20/40/21 23/42/22 22/41/21
f 23/45/24 20/43/23 21/44/24
f 21/44/24 24/46/25 23/45/24
f 27/49/27 25/47/26 26/48/27
f 26/48/27 28/50/28 27/49/27
f 30/53/30 29/51/29 25/52/30
f 25/52/30 27/54/31 30/53/30
f 31/57/32 27/55/28 28/56/32
f 28/56/32 32/58/33 31/57/32
f 33/61/35 30/59/34 27/60/35
f 27/60/35 31/62/36 33/61/35
f 34/65/38 31/63/37 32/64/38
f 32/64/38 35/66/39 34/65/38
f 36/69/41 33/67/40 31/68/41
f 31/68/41 34/70/42 36/69/41
f 37/73/44 34/71/43 35/72/44
f 35/72/44 38/74/45 37/73/44
f 39/77/47 36/75/46 34/76/47
f 34/76/47 37/78/48 39/77/47
f 40/81/49 37/79/49 38/80/49
f 38/80/49 41/82/49 40/81/49
f 42/85/49 39/83/49 37/84/49
f 37/84/49 40/86/49 42/85/49
f 48/99/58 44/98/59 45/97/58
f 45/97/58 49/100/60 48/99/58
f 50/102/61 43/101/62 44/98/61
f 44/98/61 48/99/60 50/102/61
f 51/103/64 50/102/63 48/99/64
f 48/99/64 52/104/65 51/103/64
f 52/104/64 48/99/60 49/100/64
f 49/100/64 53/105/66 52/104/64
f 54/108/58 46/107/67 47/106/58
f 47/106/58 55/109/68 54/108/58
f 49/100/58 45/97/59 46/107/58
f 46/107/58 54/108/68 49/100/58
f 53/110/69 49/100/60 54/108/69
f 54/108/69 56/111/66 53/110/69
f 56/111/69 54/108/68 55/109/69
f 55/109/69 57/112/70 56/111/69

