# ProBuilder 4.4.0
# https://unity3d.com/unity/features/worldbuilding/probuilder
# 11/11/2021 4:03:20 PM

mtllib ./Road2.mtl
o Road2

g Road2
v -1.192093E-07 0 -68.66306
v 0 0 5
v -5 0 -68.66306
v -5 0 5
v -1.192093E-07 0 38.93899
v -5 0 38.93899
v -10 0 -68.66306
v -10 0 5
v -10 0 38.93899
v -0.7631871 0.5 49.39843
v -5.254395 0.5 47.20092
v -9.745605 0.5 45.00341
v -4.875832 0.9992275 57.48743
v -8.169056 0.9987621 53.72771
v -11.45842 0.9978189 49.96645
v -21.08044 1.498186 69.0271
v -24.36568 1.497088 65.26295
v -27.64267 1.494867 61.49531
v -10 0.5 -83.10873
v -5 0.5 -83.10873
v -1.192093E-07 0.5 -83.10873
v -9.308602 0.9997005 -152.1745
v -4.769535 0.9997005 -154.2713
v -0.2304658 0.9997005 -156.3682
v -17.05391 1.499687 -175.4093
v -12.51445 1.499687 -177.5062
v -7.975012 1.499686 -179.6032
v -33.1438 1.999582 -185.681
v -31.15395 1.999582 -190.2685
v -29.16411 1.999581 -194.8559
v -67.24756 2.499424 -207.0576
v -67.1069 2.499467 -212.0591
v -66.96602 2.499485 -217.0596
v -106.7538 2.999382 -222.931
v -106.613 2.999426 -227.9331
v -106.4721 2.999443 -232.9342
v -168.3185 3.499343 -222.9309
v -168.1777 3.499387 -227.9329
v -168.0368 3.499403 -232.934

vt 1.192093E-07 -68.66306
vt 0 5
vt 5 -68.66306
vt 5 5
vt 1.192093E-07 38.93899
vt 5 38.93899
vt 10 -68.66306
vt 10 5
vt 10 38.93899
vt 1.192093E-07 38.89457
vt 5 38.89457
vt 0.7631871 49.36596
vt 5.254395 47.17096
vt 5 38.86788
vt 10 38.86788
vt 5.254395 47.14492
vt 9.745605 44.95143
vt 0.7750514 49.362
vt 5.264947 47.16181
vt 4.898563 57.46087
vt 8.190813 53.70178
vt 5.267259 47.12964
vt 9.756355 44.92782
vt 8.195846 53.66924
vt 11.48363 49.90898
vt 4.893851 57.49456
vt 8.186478 53.73432
vt 21.105 69.03584
vt 24.38963 65.27116
vt 11.47519 49.97254
vt 27.66593 61.50299
vt 10 -68.62196
vt 5 -68.62196
vt 10 -83.07629
vt 5 -83.07629
vt 1.192093E-07 -68.62196
vt 1.192093E-07 -83.07629
vt 10 -83.11018
vt 5 -83.11018
vt 9.308602 -152.1777
vt 4.769535 -154.2745
vt 1.192093E-07 -83.11019
vt 0.2304658 -156.3714
vt 9.316869 -152.1651
vt 4.777969 -154.2624
vt 17.06619 -175.404
vt 12.5269 -177.5013
vt 0.2390686 -156.3596
vt 7.987635 -179.5986
vt 17.07202 -175.3754
vt 12.53294 -177.4732
vt 33.16706 -185.6513
vt 31.17738 -190.2376
vt 12.52992 -177.4896
vt 7.99075 -179.5871
vt 31.17373 -190.2553
vt 29.18401 -194.842
vt 33.16464 -185.6868
vt 31.17492 -190.2743
vt 67.2719 -207.0637
vt 67.13125 -212.0651
vt 31.17407 -190.2742
vt 29.18436 -194.8617
vt 67.13035 -212.0651
vt 66.98948 -217.0656
vt 67.27356 -207.0582
vt 67.13292 -212.0597
vt 106.783 -222.9316
vt 106.6422 -227.9337
vt 66.99205 -217.0602
vt 106.5013 -232.9348
vt 106.7746 -222.9315
vt 106.6339 -227.9336
vt 168.3414 -222.9314
vt 168.2006 -227.9334
vt 106.4929 -232.9347
vt 168.0597 -232.9345

vn 0 1 0
vn 0 0.9988594 -0.04774919
vn 0.0145538 0.9983319 -0.0536193
vn 0.0291076 0.9978045 -0.0594894
vn 0 0.9981738 -0.06040801
vn 0.02050342 0.9969058 -0.07210831
vn 0.04100683 0.9956378 -0.08380862
vn 0.0241453 0.9984898 -0.04934757
vn 0.04083276 0.9977779 -0.04992715
vn 0.05752022 0.997066 -0.05050673
vn 0.03061111 0.9975715 -0.06256213
vn 0.05608104 0.9958339 -0.0670654
vn 0.08155097 0.9940963 -0.07156868
vn 0.01890251 0.9996822 -0.0166809
vn 0 0.9994016 0.03459171
vn 0 0.9999738 0.007234956
vn 0.001624321 0.9999719 0.007133611
vn 0.003248641 0.99997 0.007032265
vn 0.001573173 0.9999737 0.006916331
vn 0.003146346 0.9999719 0.00681088
vn 0.008612526 0.9997891 0.01864335
vn 0.01303688 0.9995167 0.02822206
vn 0.01685477 0.9996314 0.01859455
vn 0.02067266 0.9997461 0.008967039
vn 0.01080112 0.9996682 0.02338156
vn 0.01438814 0.9997381 0.01558914
vn 0.01797516 0.999808 0.007796723
vn 0.01152253 0.9999211 0.004998048
vn 0.01259347 0.9999138 0.002695504
vn 0.01366441 0.9999065 0.0003929588
vn 0.01100882 0.999928 0.004774991
vn 0.01200735 0.9999217 0.002572473
vn 0.01300589 0.9999154 0.0003699542
vn 0.01250935 0.9999217 0.0003604751
vn 0.008120636 0.999967 0.0002371596

usemtl ProBuilderDefault
f 3/3/1 4/4/1 2/2/1 1/1/1
f 4/4/1 6/6/1 5/5/1 2/2/1
f 7/7/1 8/8/1 4/4/1 3/3/1
f 8/8/1 9/9/1 6/6/1 4/4/1
f 11/13/4 10/12/3 5/10/2 6/11/3
f 12/17/7 11/16/6 6/14/5 9/15/6
f 14/21/10 13/20/9 10/18/8 11/19/9
f 15/25/13 14/24/12 11/22/11 12/23/12
f 17/29/14 16/28/14 13/26/14 14/27/14
f 18/31/14 17/29/14 14/27/14 15/30/14
f 20/35/15 19/34/15 7/32/15 3/33/15
f 21/37/15 20/35/15 3/33/15 1/36/15
f 23/41/18 22/40/17 19/38/16 20/39/17
f 24/43/20 23/41/19 20/39/16 21/42/19
f 26/47/21 25/46/21 22/44/21 23/45/21
f 27/49/21 26/47/21 23/45/21 24/48/21
f 29/53/24 28/52/23 25/50/22 26/51/23
f 30/57/27 29/56/26 26/54/25 27/55/26
f 32/61/30 31/60/29 28/58/28 29/59/29
f 33/65/33 32/64/32 29/62/31 30/63/32
f 35/69/34 34/68/34 31/66/34 32/67/34
f 36/71/34 35/69/34 32/67/34 33/70/34
f 38/75/35 37/74/35 34/72/35 35/73/35
f 39/77/35 38/75/35 35/73/35 36/76/35

